<?xml version="1.0" encoding="utf-8"?>
<!-- Generator: Adobe Illustrator 19.0.1, SVG Export Plug-In . SVG Version: 6.00 Build 0)  -->
<svg version="1.1" id="Layer_1" xmlns="http://www.w3.org/2000/svg" xmlns:xlink="http://www.w3.org/1999/xlink" x="0px" y="0px"
	 viewBox="0 0 166 166" style="enable-background:new 0 0 166 166;" xml:space="preserve">
<style type="text/css">
	.st0{fill:#E44430;}
</style>
<g>
	<g>
		<path class="st0" d="M137.6,83c0,14,10.2,25.7,23.6,28c3.1-8.7,4.8-18.2,4.8-28s-1.7-19.2-4.8-28C147.8,57.3,137.6,69,137.6,83z"
			/>
		<path class="st0" d="M28.4,83c0-14-10.2-25.7-23.6-28C1.7,63.8,0,73.2,0,83s1.7,19.2,4.8,28C18.2,108.7,28.4,97,28.4,83z"/>
		<path class="st0" d="M121.6,44.4c9.9,9.9,25.4,11,36.4,3.1c-8.2-17.3-22.2-31.4-39.6-39.6C110.7,19,111.7,34.5,121.6,44.4z"/>
		<path class="st0" d="M44.4,121.6c-9.9-9.9-25.4-11-36.4-3.1c8.2,17.3,22.2,31.4,39.6,39.6C55.3,147,54.3,131.5,44.4,121.6z"/>
		<path class="st0" d="M83,28.4c14,0,25.7-10.2,28-23.6C102.2,1.7,92.8,0,83,0S63.8,1.7,55,4.8C57.3,18.2,69,28.4,83,28.4z"/>
		<path class="st0" d="M83,137.6c-14,0-25.7,10.2-28,23.6c8.7,3.1,18.2,4.8,28,4.8s19.2-1.7,28-4.8C108.7,147.8,97,137.6,83,137.6z"
			/>
		<path class="st0" d="M44.4,44.4c9.9-9.9,11-25.4,3.1-36.4C30.2,16.2,16.2,30.2,8,47.5C19,55.3,34.5,54.3,44.4,44.4z"/>
		<path class="st0" d="M121.6,121.6c-9.9,9.9-11,25.4-3.1,36.4c17.3-8.2,31.4-22.2,39.6-39.6C147,110.7,131.5,111.7,121.6,121.6z"/>
	</g>
	<g>
		<circle class="st0" cx="83" cy="42.1" r="7.7"/>
		<circle class="st0" cx="83" cy="123.7" r="7.7"/>
	</g>
	<g>
		<circle class="st0" cx="54.1" cy="54.1" r="7.7"/>
		<circle class="st0" cx="111.8" cy="111.8" r="7.7"/>
	</g>
	<g>
		<circle class="st0" cx="42.1" cy="83" r="7.7"/>
		<circle class="st0" cx="123.7" cy="83" r="7.7"/>
	</g>
	<g>
		<circle class="st0" cx="54.1" cy="111.9" r="7.7"/>
		<circle class="st0" cx="111.8" cy="54.2" r="7.7"/>
	</g>
</g>
</svg>
