<?xml version="1.0" encoding="utf-8"?>
<!-- Generator: Adobe Illustrator 19.1.0, SVG Export Plug-In . SVG Version: 6.00 Build 0)  -->
<svg version="1.1" baseProfile="tiny" id="Layer_1" xmlns="http://www.w3.org/2000/svg" xmlns:xlink="http://www.w3.org/1999/xlink"
	 x="0px" y="0px" viewBox="0 0 512 512" xml:space="preserve">
	<g id="boundless-logo-orange-corner">
		<path fill="#FBB226" d="M237.5,96.1l-43.2-24.9l-61.7-35.6l0,69.3l0,47.9c0,11.7,8.3,26.1,18.5,32l43.2,24.9l43.2,24.9v0l18.5,10.7
			V224v-95.9C256,116.4,247.7,102,237.5,96.1z"/>
		<path fill="#F9A627" d="M274.4,96.1l43.2-24.9l61.7-35.6l0,69.3l0,47.9c0,11.7-8.3,26.1-18.5,32l-43.2,24.9l-43.2,24.9v0L256,245.3
			V224v-95.9C256,116.4,264.3,102,274.4,96.1z"/>
	</g>
	<g id="boundless-logo-green-corner">
		<path fill="#65A946" d="M124.8,355.3l0,49.9l0,71.2l60-34.6l41.5-24c10.2-5.9,18.5-20.3,18.5-32l0-49.9l0-49.9l0,0l0-21.3
			l-18.5,10.7l-83,47.9C133.1,329.2,124.8,343.6,124.8,355.3z"/>
		<path fill="#6BB64F" d="M106.3,323.3l-43.2-24.9L1.5,262.8l60-34.6l41.5-24c10.2-5.9,26.8-5.9,36.9,0l43.2,24.9l43.2,24.9l0,0
			l18.5,10.7l-18.5,10.7l-83,47.9C133.1,329.2,116.5,329.2,106.3,323.3z"/>
	</g>
	<g id="boundless-logo-blue-corner">
		<path fill="#2CA0C3" d="M387.2,355.3l0,49.9l0,71.2l-60-34.6l-41.5-24c-10.2-5.9-18.5-20.3-18.5-32l0-49.9l0-49.9l0,0l0-21.3
			l18.5,10.7l83,47.9C378.9,329.2,387.2,343.6,387.2,355.3z"/>
		<path fill="#41B0D5" d="M405.7,323.3l43.2-24.9l61.7-35.6l-60-34.6l-41.5-24c-10.2-5.9-26.8-5.9-36.9,0l-43.2,24.9l-43.2,24.9l0,0
			l-18.5,10.7l18.5,10.7l83,47.9C378.9,329.2,395.5,329.2,405.7,323.3z"/>
	</g>
</svg>
