<?xml version="1.0" encoding="utf-8"?>
<!-- Generator: Adobe Illustrator 16.0.0, SVG Export Plug-In . SVG Version: 6.00 Build 0)  -->
<!DOCTYPE svg PUBLIC "-//W3C//DTD SVG 1.1//EN" "http://www.w3.org/Graphics/SVG/1.1/DTD/svg11.dtd">
<svg version="1.1"
	 id="svg2" sodipodi:docname="Twitter_bird_logo_2012.svg" inkscape:version="0.48.4 r9939" xmlns:inkscape="http://www.inkscape.org/namespaces/inkscape" xmlns:sodipodi="http://sodipodi.sourceforge.net/DTD/sodipodi-0.dtd" xmlns:svg="http://www.w3.org/2000/svg" xmlns:rdf="http://www.w3.org/1999/02/22-rdf-syntax-ns#" xmlns:cc="http://creativecommons.org/ns#" xmlns:dc="http://purl.org/dc/elements/1.1/"
	 xmlns="http://www.w3.org/2000/svg" xmlns:xlink="http://www.w3.org/1999/xlink" x="0px" y="0px" width="171.506px"
	 height="139.379px" viewBox="0 0 171.506 139.379" enable-background="new 0 0 171.506 139.379" xml:space="preserve">
<sodipodi:namedview  id="base" inkscape:document-units="px" inkscape:window-height="962" inkscape:window-width="1280" inkscape:pageshadow="2" inkscape:current-layer="layer1" inkscape:window-y="-8" inkscape:window-maximized="1" fit-margin-right="0" inkscape:pageopacity="0.0" fit-margin-bottom="0" inkscape:window-x="-8" pagecolor="#ffffff" borderopacity="1.0" bordercolor="#666666" inkscape:cy="50.181142" inkscape:zoom="3.7200571" inkscape:cx="101.29413" showgrid="false" fit-margin-left="0" fit-margin-top="0">
	</sodipodi:namedview>
<g id="layer1" transform="translate(-282.32053,-396.30734)" inkscape:groupmode="layer" inkscape:label="Layer 1">
	<path id="path5" inkscape:connector-curvature="0" fill="#309FC6" d="M453.825,412.806c-6.31,2.799-13.092,4.689-20.209,5.54
		c7.266-4.354,12.846-11.249,15.472-19.466c-6.8,4.032-14.329,6.96-22.345,8.538c-6.418-6.839-15.562-11.111-25.684-11.111
		c-19.432,0-35.187,15.754-35.187,35.186c0,2.758,0.311,5.443,0.911,8.019c-29.243-1.467-55.17-15.476-72.524-36.764
		c-3.029,5.196-4.765,11.24-4.765,17.688c0,12.208,6.212,22.978,15.653,29.287c-5.768-0.183-11.193-1.766-15.938-4.4
		c-0.004,0.146-0.004,0.294-0.004,0.442c0,17.048,12.129,31.269,28.226,34.503c-2.952,0.804-6.061,1.232-9.27,1.232
		c-2.268,0-4.472-0.221-6.62-0.631c4.478,13.979,17.472,24.151,32.87,24.436c-12.043,9.438-27.214,15.062-43.7,15.062
		c-2.84,0-5.641-0.167-8.394-0.492c15.572,9.984,34.067,15.811,53.938,15.811c64.721,0,100.112-53.615,100.112-100.114
		c0-1.525-0.033-3.043-0.102-4.553C443.144,426.059,449.109,419.863,453.825,412.806L453.825,412.806z"/>
</g>
</svg>
